<svg preserveAspectRatio="xMidYMid meet" data-bbox="22.433 14.974 155.167 170.219" viewBox="22.433 14.974 155.167 170.219" height="200" width="200" xmlns="http://www.w3.org/2000/svg" data-type="color" role="img" aria-labelledby="svgcid-v6rtgkeiqqsn"><defs><style>#comp-kkcbc835 svg [data-color="1"] {fill: #1D698C;}
#comp-kkcbc835 svg [data-color="2"] {fill: #DF7828;}</style></defs><title id="svgcid-v6rtgkeiqqsn">Homepage</title>
    <g>
        <path d="M99.8 15h4.1c2.4 0 4.8-.2 7.1.5 2 .7 4.1.5 6.1.4 2.6-.1 5 .6 7.3 1.5 1.4.6 2.9.8 4.4 1.2 2.5.6 4.7 1.7 6.9 2.9 4.1 2.2 8.6 3.2 12.5 5.9.5.3 1 .7 1.3 1.1 1.5 1.9 3.6 3 5.7 4.2 1.2.6 2.2 1.5 2.9 2.6 1.2 1.8 2.2 3.7 3.3 5.7.8 1.5 1.6 3 2.7 4.3 1.4 1.8 2.2 4 3.6 5.7 2.9 3.3 4 7.3 5.1 11.4.5 1.7.8 3.5.8 5.3.2 4.7.8 9.4 1.8 14 .4 1.8.8 3.7.7 5.6-.2 3.1.4 6.2 1.3 9.2.2.7.2 1.3.2 2V113c0 1.4-.5 2.7-.6 4.1-.6 6.9-1.8 13.8-4.6 20.3-.6 1.4-.9 2.9-1.3 4.4-1.9 6.3-5.2 11.8-9.3 16.9-1.8 2.3-3.8 4.5-5.5 6.9-1.4 2-3.5 3.3-5.4 4.7-.8.6-1.5 1.4-2.2 2.1-2.2 2-4.6 3.3-7.5 3.8-1.9.4-3.6 1.4-5.4 2-1.4.4-2.7 1-4.1 1.3-1.8.4-3.5 1.2-5.2 2-2.4 1.2-4.8 1.8-7.5 1.9-2.7.2-5.5.7-8.2 1.2-1.5.3-3.1.8-4.6.5-1.7-.3-3.4 0-5.1-.2-4.6-.3-8.9-1.4-12.8-4-1.6-1.1-3.6-1.6-5.2-2.6-1.2-.7-2.4-.4-3.6-.7-3.7-.8-6.8-2.9-10.2-4.5-1.5-.7-2.9-1.8-4.3-2.7-.8-.5-1.8-.9-2.4-1.6-2-2.2-4.4-3.8-6.9-5.4-.9-.6-1.1-1.6-1.8-2.3-2.3-2.5-5.1-4.4-7.5-6.9-1.2-1.3-2.7-2.4-3.7-3.8-1.6-2.2-3.4-4-5.6-5.5-2.1-1.4-3.9-3-5.1-5.2-1.5-2.6-3.6-4.8-4.1-7.9-.2-.9-.3-1.7-.4-2.6-.1-1.3 1.4-2.5.4-3.9-.8-1.2-.1-2.8-.9-4 .3-3.2-.9-6.3-1.5-9.3-.4-1.9-1.4-3.6-1.8-5.5-.1-.3-.2-.6-.2-1 0-2-.4-4.1-.4-6.1-.1-3.6-.9-7.1-.6-10.6.4-4 .7-8.1 1.5-12.1 1.2-5.9 3.6-11.4 5-17.2.3-1.4 1.5-2.5 2.1-3.8.8-2.1 2-4 3.3-5.9 2.2-3.2 4.2-6.4 7.1-9 .5-.4.9-.9 1.5-1.2 1.1-.6 2.1-1.4 2.9-2.2 3.7-4 7.9-7.3 12.7-9.8 3.4-1.8 6.6-4.1 10.5-4.8.9-.2 1.3-.9 2.1-1.2 4.3-2.1 8.7-3.8 13.3-5.1 1.5-.4 3.1-.3 4.6-.7 3.9-1.1 7.5-.7 10.7-.8zm-.7 20h-8c-.7 0-1.3-.1-2 .2-2.8 1-5.6 1.9-8.5 2.6-1.9.5-3.6 1.6-5.4 2.1-4.5 1.1-8.3 3.5-12.1 5.9-3.4 2.2-6.5 4.7-9.9 7-.9.6-1.7 1.4-2.3 2.3-1.9 2.6-3.8 5.2-5.5 8-1.3 2.3-2.8 4.4-3.8 6.9-1.8 4.4-3.3 8.9-4.6 13.5-1 3.5-2.1 7-1.7 10.8.1.8.4 1.7.3 2.4-.4 3.4-.7 6.9-1.5 10.3-.5 2.3-.8 4.8.1 7.3.6 1.7 1.5 3.4 1.6 5.3 0 1.3.5 1.6 1.8 1.8 2.7.4 4.7 1.5 6 4.3 1 2.2 2.3 4.4 4.4 5.9.5.4 1 .8 1.4 1.2 2.6 2.5 4.1 5.8 5.8 8.8 1.5 2.7 2.7 5.6 5.2 7.5.4.3.6.7.9 1.2.4.7 1 1.4 1.7 1.8 3 1.5 5.6 3.7 8.7 5.2 2.8 1.3 5.3 3 8.4 3.6 1.4.2 2.9.7 4.1.3 1.9-.6 3.6 0 5.2.2 3.7.4 7.3.9 11 .9.5 0 1.1-.2 1.5 0 2 1 4-.1 6-.3 2-.2 4-.5 6-.7 1.8-.2 3.5-.5 5.1-1.3 2.5-1.1 5.1-2 7.7-2.8 2.8-.8 5.3-2.4 8.1-3.1.1 0 .2-.2.4-.3 3.6-2.5 6.3-5.8 9-9.1 2.6-3.2 4.9-6.6 6.2-10.6 1.5-4.5 3.6-8.8 4.9-13.4.4-1.5.7-3 1-4.5.4-2.2.9-4.5 1.1-6.7.2-2.2.2-4.4.4-6.6.3-3.3.3-6.7.6-10.1.3-2.8 0-5.6.4-8.4.5-2.9.9-5.8 1.2-8.7.1-1.4 0-3 .5-4.4 1-2.8.1-5.4-.4-7.9-.8-3.6-3.2-6.5-5.3-9.4-1.6-2.2-3.4-4.1-4.9-6.3-1.4-2.1-3.1-3.9-5.9-4.3-1.3-.2-2.7-.8-3.7-1.6-1.7-1.3-3.7-1.7-5.7-1.8-1.2-.1-2.4-.5-3.5-.8-2.4-.8-4.6-2.2-7.3-2.4-2-.2-4-.8-6-.8-1.6.1-3.2.2-4.7-.1-2.4-.5-4.8-.9-7.2-.9h-6.8z" fill="#1d698c" data-color="1"></path>
        <path d="M44.8 101.1c0-1.5.1-3 0-4.5-.1-3.1.7-6 1.7-8.8 2-5.4 5.1-10.3 8.5-15 1.2-1.6 2.7-2.9 4.2-4.3 3-2.7 5.4-6.1 8.3-8.8 5.1-4.7 10.7-8.6 17.4-10.4 3.3-.9 6.5-2.3 9.9-3.1 3.3-.8 6.5-1.2 9.9-.5 1.9.4 3.9.5 5.8.7 3.5.3 6.9 1.2 10.1 3.1 2.8 1.7 5.5 3.4 8.2 5.2 1.2.8 2 1.9 3.2 2.7 1.6 1 3.2 2.1 4.5 3.4 1.2 1.2 2.4 2.6 3.5 4.1 2.1 2.7 3.3 5.9 4.9 8.9 1.2 2.3 2.7 4.4 3.2 7 .8 3.6 1.9 7.2 1.8 11-.1 3.2.2 6.4-.5 9.6-.4 1.6-.9 3.3-1.7 4.8-1.4 2.6-2.5 5.5-4.2 8-.7 1.1-1.1 2.5-1.5 3.8-.6 1.8-1.5 3.5-2.8 4.8-2.7 2.5-4.7 5.4-6.7 8.5-3.2 4.8-7.1 8.9-12.7 11-3.8 1.5-7.5 2.9-11.5 3.5-4.3.7-8.6 1.1-13 .8-2.1-.1-4.2-.6-6.3-.8-2.9-.3-5.6-1-8.3-1.6-1.3-.3-2.7-.6-3.9-1.2-2.6-1.3-5.3-2-8-2.7-2.9-.8-5.4-2.1-7.7-3.9-4-3.1-6.6-7.4-9.8-11.2-2.2-2.7-3.8-5.6-4.7-9-.9-3.3-1.8-6.6-1.7-10.1-.1-1.6-.1-3.3-.1-5z" fill="#df7828" data-color="2"></path>
    </g>
</svg>